<?xml version="1.0" encoding="utf-8"?>
<!-- Designed by Vexels.com - 2019 All Rights Reserved - https://vexels.com/terms-and-conditions/  -->
<svg version="1.1" id="Layer_1" xmlns="http://www.w3.org/2000/svg" xmlns:xlink="http://www.w3.org/1999/xlink" x="0px" y="0px"
	 viewBox="0 0 1200 1200" enable-background="new 0 0 1200 1200" xml:space="preserve">
<g>
	<path fill="#2C2C2C" d="M765.764,334.865c-0.366-9.765-5.828-18.585-11.34-26.251c-5.096-7.087-8.79-14.857-13.545-22.129
		c-4.109-6.283-9.204-11.964-13.376-18.301c-5.07-7.7-13.107-16.477-22.616-18.371c-18.346-3.654-30.051,13.287-29.35,29.779
		c0.91,21.434,17.109,33.133,29.003,48.644c-0.136-0.199-0.272-0.398-0.408-0.597c4.161,6.008,7.832,12.239,11.887,18.286
		c4.773,7.117,9.904,18.865,19.672,19.687C751.802,366.97,766.491,349.896,765.764,334.865z M719.847,295.415
		c-1.657,3.228-4.407,2.798-6.953,4.131c-1.839,0.963-0.688,1.861-3.564,2.457c-1.773,0.367-4.631-0.409-6.215-1.08
		c-6.701-2.838-10.606-11.379-8.351-18.314c2.729-8.39,10.996-3.351,15.574,0.545C712.777,285.23,721.07,291.714,719.847,295.415z"
		/>
	<path fill="#2C2C2C" d="M590.017,314.619c-0.563-3.87-2.36-7.452-3.649-11.101c-1.797-5.084-2.981-10.459-6.482-14.727
		c-6.638-8.092-21.857-9.921-31.117-5.055c-11.696,6.146-14.324,22.158-16.604,33.784c-1.179,6.01-0.985,12.168-2.113,18.147
		c-1.062,5.633-4.563,10.019-7.683,14.661c-3.561,5.298-4.977,10.923-6.432,17.029c-1.23,5.162-3.586,10.313-3.67,15.658
		c-0.185,11.776,9.617,17.666,20.351,17.893c6.665,0.141,15.652,1.389,21.83-0.971c11.355-4.338,14.818-17.755,17.886-28.335
		C577.877,352.481,592.995,335.39,590.017,314.619z M572.721,319.804c-1.471,8.724-22.381,22.917-21.044,6.056
		c0.55-6.936,5.216-11.998,11.633-14.018C570.456,309.593,573.556,312.145,572.721,319.804z"/>
	<path fill="#2C2C2C" d="M553.693,611.18c-0.012-0.009-0.009-0.006,0.007,0.009C553.697,611.185,553.695,611.185,553.693,611.18z"/>
	<path fill="#2C2C2C" d="M1032.019,708.648c-2.584-24.609-21.552-43.415-34.402-63.393c-13.792-21.442-26.668-43.535-37.219-66.749
		c-5.019-11.042-11.279-21.501-15.959-32.712c-4.341-10.397-8.086-21.301-11.43-32.055c-7.076-22.75-17.165-44.357-28.669-65.205
		c-12.108-21.944-32.886-42.348-57.997-48.049c5.821-9.201,4.595-23.684,3.214-33.77c-1.301-9.507-3.268-18.88-4.662-28.418
		c-4.564-31.239-11.581-63.196-26.614-91.151c-10.271-19.099-20.645-38.007-34.636-54.711c5.531,2.955,14.666-0.312,18.752-4.291
		c8.565-8.34,14.747-19.823,16.06-31.727c1.586-14.379,0.428-29.366-3.959-43.153c-3.221-10.122-5.445-20.679-10.886-29.853
		c-9.734-16.412-28.54-24.987-46.48-29.718c-15.921-4.199-34.141-4.983-50.159-1.498c-13.885,3.021-28.039,14.629-29.941,29.857
		c-0.895,7.168,0.028,14.627-0.431,21.836c-0.184,2.893-0.687,5.779-0.734,8.68c-4.566-3.568-13.356-4.333-18.879-5.028
		c-5.384-0.678-10.8-1.042-16.193-1.625c-13.211-1.428-28.345-0.679-41.259,2.434c-11.086,2.673-21.914,5.377-32.651,9.321
		c-11.871,4.361-22.758,10.578-33.708,16.807c-13.717,7.804-27.658,16.311-38.981,27.393c3.036-3.842,1.672-14.363,0.784-18.72
		c-1.601-7.859-4.621-16.208-9.604-22.538c-7.342-9.327-16.847-17.12-28.415-20.397c-8.72-2.47-20-2.734-29.002-1.161
		c-14.773,2.581-27.243,11.883-38.176,21.619c-10.491,9.342-21.204,18.779-28.896,30.69c-3.654,5.658-6.548,11.865-9.391,17.967
		c-10.681,22.924-13.926,50.695-2.44,74.028c7.51,15.258,18.007,26.857,34.348,32.589c9.159,3.213,21.281,5.932,30.995,3.002
		c-1.753,3.338-2.289,8.195-3.316,11.904c-1.28,4.622-2.771,9.421-3.506,14.162c-1.534,9.895-0.588,20.65-0.588,30.651
		c0,20.54-1.428,41.855,0.723,62.279c0.555,5.269,0.863,10.567,1.465,15.828c0.167,1.456,0.402,2.912,0.609,4.364
		c0.233,1.637,1.404,4.982,1.045,6.45c-0.338,1.382-0.759,1.182-1.994,2.386c-9.457,9.216-17.686,19.119-25.61,29.656
		c-17.275,22.971-27.407,49.558-33.068,77.641c-2.509,12.448-5.746,24.728-6.917,37.393c-0.547,5.915-1.149,11.815-1.49,17.749
		c-0.474,8.272,0.525,16.427,0.525,24.682c2.102,0,4.321-16.59,4.707-18.428c2.495-11.871,5.433-27.199,16.475-34.171
		c7.642-4.825,16.981-7.813,25.304-11.276c9.837-4.094,19.194-9.637,28.227-15.272c8.556-5.338,17.536-9.932,26.075-15.282
		c4.843-3.034,9.721-5.843,15.015-8.002c13.848-5.646,28.549-5.689,43.202-3.799c13.854,1.786,24.158,10.465,31.275,22.255
		c6.855,11.356,9.605,25.267,12.057,38.168c1.518,7.988,1.876,15.968,4.449,23.692c2.063,6.19,4.977,11.453,9.127,16.47
		c19.018,22.986,37.835,51.506,38.103,82.43c0.02,2.302-0.869,3.269,1.029,3.716c0.482,0.114,3.54-1.763,4.312-2.084
		c2.479-1.03,5.092-1.818,7.669-2.56c6.849-1.971,13.702-3.021,20.715-4.16c4.957-0.805,12.167-1.75,18.107-2.624
		c21.082-3.103,44.496-5.149,63.852,5.291c0.904-2.171-2.08-6.808-2.831-9c-1.208-3.522-2.314-7.08-3.476-10.618
		c-2.304-7.011-4.005-14.079-5.233-21.339c-1.435-8.483-2.286-16.992-3.313-25.517c-0.856-7.101-0.852-14.165-0.826-21.311
		c0.009-2.378-1.346-8.049,1.547-8.827c3.259-0.876,3.227,3.118,3.312,5.127c0.674,15.893,1.07,31.253,3.656,47.038
		c2.99,18.248,10.568,37.343,16.86,52.8c6.732,16.195,15.349,32.201,16.313,50.175c0.767,14.295-2.162,25.51-9.737,37.707
		c-4.962,7.99-10.109,15.41-15.63,23.226c-10.2,14.441-18.731,28.022-20.941,46.113c-1.41,11.542-0.611,22.22,3.095,33.269
		c3.693,11.011,8.371,22.615,17.072,30.624c5.542,5.101,14.139,4.794,21.304,6.721c5.136,1.381,10.154,3.046,15.008,5.245
		c5.664,2.566,10.944,7.692,16.668,9.442c4.699,1.437,10.438,0.129,15.184-0.337c6.397-0.628,12.321,0.951,18.659-0.622
		c14.976-3.717,26.907-10.876,38.857-20.559c11.941-9.676,21.403-21.945,33.802-31.162c10.968-8.154,22.097-16.333,34.156-22.804
		c10.743-5.764,21.304-11.736,31.69-18.127c5.125-3.154,10.948-5.425,15.545-9.325c4.512-3.827,8.617-8.05,12.759-12.267
		c15.359-15.635,34.763-25.753,48.649-43.047c8.557-10.657,13.167-25.531,15.925-38.688
		C1032.359,731.401,1032.97,719.81,1032.019,708.648z M717.94,855.326c-0.508-0.141-1.015-0.283-1.523-0.424
		c2.634-4.954,5.026-9.821,7.517-14.843c1.022-2.06,3.333-7.818,5.882-5.821C734.306,837.755,722.948,856.92,717.94,855.326z
		 M733.984,884.893c-4.904,5.761-9.762,10.979-15.32,16.095c6.672-10.438,12.832-20.635,16.146-32.719
		c0.604-2.204,0.325-5.149,3.101-4.211c1.353,0.457,2.091,2.017,2.438,3.304C741.764,872.6,736.775,880.746,733.984,884.893z
		 M750.932,882.816c-3.655,4.915-7.047,10.06-10.466,15.134c-1.409,2.092-1.996,4.761-4.887,3.342
		c1.738-6.94,5.711-13.472,9.396-19.578c1.214-2.012,1.791-4.206,3.752-3.766C750.7,878.389,751.829,881.182,750.932,882.816z
		 M769.265,884.294c-5.073,5.569-8.415,12.682-11.304,19.566c-1.066,2.54-2.323,12.468-6.514,11.114
		c1.012-10.978,3.612-21.963,10.246-30.994c1.272-1.731,2.769-4.958,5.046-4.598C768.569,879.67,770.951,882.956,769.265,884.294z
		 M799.326,902.157c-6.772,6.805-12.399,15.464-13.944,25.058c-0.214,1.326-0.962,4.978-3.075,2.536
		c-0.551-0.636-0.08-5.647,0.014-6.461c0.957-8.291,5.194-16.273,9.859-23.021c1.682-2.432,3.687-4.347,6.82-1.983
		C800.441,899.374,801.133,901.016,799.326,902.157z M843.571,386.202c-7.075,44.269-40.04,77.667-73.013,105.04
		c-15.186,12.607-35.228,20.355-54.276,25.096c-6.984,1.739-13.377,2.318-20.423,5.344c-11.227,4.822-21.448,7.735-34.251,7.805
		c-16.289,0.089-30.951-6.913-47.479-4.79c-14.749,1.895-29.627,3.25-44.614,3.25c16.358-8.368,32.754-16.712,48.796-25.674
		c7.048-3.938,13.825-8.369,20.921-12.215c3.315-1.797,6.866-2.644,10.326-4.208c1.838-0.831,3.949-1.605,5.562-2.86
		c1.327-1.033,2.166-3.466,3.264-4.274c3.381-2.486,12.946-3.015,17.018-3.535c6.319-0.807,12.149-2.792,17.662-5.095
		c6.589-2.752,12.788-5.264,19.153-8.507c1.245-0.634,7.918-4.322,7.918-5.117c2.79-2.205,5.235-4.815,8.046-7.024
		c0.904-0.711,2.029-1.497,2.937-2.2c0.284-0.22,0.537-0.351,1.103-0.809c4.344-3.358,2.352-8.468-3.135-5.012
		c-3.637,2.291-7.284,5.982-10.401,8.483c-11.367,8.657-32.622,19.708-44.501,5.966c-3.297-3.814-3.627-7.686-3.265-12.664
		c0.32-4.397,1.325-5.789,4.559-8.49c5.741-4.796,11.826-9.645,16.786-15.284c4.683-5.324,10.644-15.025,5.781-21.832
		c-2.067-2.893-5.085-4.821-8.602-5.105c-6.885-0.556-14.551,3.197-21.08,4.957c-8.53,2.299-17.581,3.884-26.337,5.198
		c0.116,0.001,0.231-0.003,0.347-0.011c-6.631,0.703-14.448,2.102-20.158,5.768c-8.053,5.17-3.579,12.763,3.082,17.088
		c6.255,4.061,13.319,6.591,19.602,10.642c5.15,3.32,11.186,9.313,17.871,6.813c-0.253,3.041-0.205,6.084-0.416,9.12
		c-0.2,2.868-0.761,5.341-1.657,8.075c-0.49,1.495-0.953,2.995-1.661,4.404c-0.315,0.627-2.957,3.114-1.312,1.85
		c-0.821,0.725-1.694,1.381-2.618,1.966c-3.363-6.113-6.348-3.154-11.019-0.313c-2.502,1.521-5.174,2.75-7.659,4.322
		c-2.806,1.775-3.741,1.867-7.024,1.453c-3.047-0.307-12.591-4.763-17.079-6.628c0.79,0.324-3.502-1.997-4.348-2.556
		c-1.328-0.877-3.015-2.739-4.597-3.089c-3.557-0.788-5.634,2.008-3.002,5.014c5.705,7.681,16.556,9.195,25.355,12.285
		c-7.018,3.538-14.201,6.404-20.939,10.502c-7.806,4.748-15.396,9.806-23.148,14.637c-5.992,3.734-12.257,7.013-18.309,10.666
		c-3.812,2.301-7.828,5.538-11.995,7.124c-3.096,1.178-1.791,0.773-4.345,0.035c-6.496-1.876-12.067-7.849-17.446-11.657
		c-5.469-3.872-11.524-8.156-17.527-11.032c-16.429-7.874-32.019-18.278-48.555-26.46c-11.235-5.559-23.547-12.251-32.088-21.628
		c-10.989-12.066-14.53-26.324-15.84-42.077c-1.671-20.084-1.793-40.01-1.793-60.158c0-16.035-1.992-33.632,1.842-49.151
		c2.807-11.362,5.827-22.812,9.574-33.896c11.263-33.317,35.058-62.557,60.558-86.095c7.854-7.25,14.871-15.378,23.367-21.916
		c8.038-6.185,16.958-11.531,25.705-16.621c13.222-7.695,26.288-14.286,40.631-19.66c19.1-7.156,41.893-10.556,62.238-9.026
		c8.751,0.658,18.105,1.033,26.651,3.041c7.433,1.747,14.655,4.836,21.686,7.725c15.413,6.333,30.665,14.943,44.574,24.05
		c15.779,10.331,28.603,25.747,40.471,40.274c26.5,32.436,48.487,68.071,58.784,109.029c5.442,21.646,8.65,43.871,12.31,65.871
		C843.425,370.146,844.267,378.348,843.571,386.202z"/>
	<path fill="#2C2C2C" d="M992.966,909.899c-0.437-14.347-3.478-25.71-11.252-37.957c-5.97-9.406-12.96-17.931-22.711-23.694
		c-1.371-0.811-5.888-4.175-7.241-4.137c-3.68,0.104-9.661,5.267-12.8,7.214c-8.562,5.31-17.272,10.287-26.135,15.074
		c-17.538,9.471-35.209,20.77-49.683,34.589c-15.218,14.53-30.343,30.514-49.216,38.647c-6.334,2.634-13.777,5.011-20.763,5.416
		c-3.778,0.219-7.383-0.693-11.171-0.505c-3.861,0.191-7.599,0.894-11.48,0.903c13.339,13.029,24.063,29.538,30.37,47.169
		c5.449,15.232,11.831,31.819,14.023,47.843c0.835,6.109,1.262,12.394,1.075,18.561c-0.058,1.901,0.459,5.193-2.433,5.11
		c-1.61-0.046-2.081-1.055-2.538-2.289c-1.017-2.745,0.036-8.229-0.106-10.949c-0.308-5.879-0.985-11.661-2.211-17.424
		c-2.702-12.701-7.908-25.711-12.086-37.944c-11.273-33.008-37.758-63.853-74.068-67.296c-14.244-1.351-26.934,3.922-38.651,11.862
		c-10.725,7.268-18.184,13.78-24.723,25.051c-4.305,7.42-6.818,16.863-9.509,24.996c-6.008,18.157-7.015,39.41-2.396,57.981
		c2.763,11.111,7.403,20.954,11.424,31.615c-3.27,0.217-6.667,2.294-9.768,3.46c-8.286,3.117-16.759,5.711-25.656,6.11
		c-13.849,0.621-27.747,1.056-41.614,0.632c-11.36-0.347-22.713-1.2-34.075-1.623c-6.408-0.239-12.721-1.091-19.089-1.777
		c-1.084-0.117-11.592-1.966-12.487-0.88c-1.52-1.625-6.777-1.584-8.798-1.844c-3.756-0.484-7.556-0.771-11.337-0.985
		c-9.044-0.512-18.123-1.036-27.154-1.723c9.275-10.101,13.492-29.333,11.66-42.77c-1.589-11.656-7.31-21.617-14.118-31.001
		c-4.423-6.097-8.484-13.833-15.328-17.3c-10.963-5.553-24.086-8.793-36.169-10.8c-13.612-2.261-28.044-1.364-41.814-1.365
		c-7.047,0-14.065,0.039-21.102,0.472c-17.809,1.095-35.535,3.915-53.098,6.993c-9.393,1.646-18.834,2.805-28.223,4.186
		c-2.62,0.386-5.232,0.751-7.863,1.058c-2.107,0.246-10.011-0.274-11.648,1.035c-1.328,1.062,7.106,2.261,8.071,2.48
		c-2.003-0.356-5.76,1.62-8.009,1.765c-1.755,0.113-3.425,0.011-5.128-0.363c-2.524-0.554-4.271-2.315-6.569-3.041
		c-2.264-0.716-5.308,0.163-7.574,0.547c-7.179,1.218-14.396,3.318-20.477,7.458c-15.038,10.238-26.372,26.587-32.919,43.22
		c-10.256,26.053,0.727,57.829,18.823,77.879c7.66,8.487,17.127,15.856,28.282,18.929c12.669,3.49,25.977,4.918,38.94,6.888
		c20.864,3.17,42.295,3.767,63.152,0.152c10.14-1.758,19.739-5.423,29.616-8.207c12.148-3.424,24.198-6.598,35.703-11.871
		c20.136-9.229,37.681-22.56,56.922-33.322c1.868-1.045,3.749-2.068,5.62-3.108c3.352-1.863,5.131-3.471,8.598-3.597
		c2.662-0.097,5.914,0.536,8.59,0.668c11.748,0.577,23.831,1.079,35.48,2.672c23.565,3.222,47.106,4.796,70.862,5.892
		c12.671,0.584,25.202-0.19,37.851-0.433c15.698-0.302,30.335-4.577,44.638-10.962c0.363,5.966,8.47,11.476,12.905,15.004
		c9.069,7.215,19.834,11.969,31.275,13.755c17.447,2.724,34.279,2.331,51.757,0.868c27.045-2.264,52.6-9.839,78.434-17.84
		c25.067-7.764,53.537-11.248,75.563-26.201c18.252-12.391,38.792-24.432,50.667-43.705c4.935-8.01,9.178-16.878,13.307-25.347
		c4.675-9.59,9.685-19.419,12.391-29.775C992.957,952.169,993.272,930.257,992.966,909.899z M205.076,1083.477
		c-0.799,2-5.889-3.007-6.549-3.855c-2.378-3.057-7.489-8.519-6.222-11.671c0.555-1.381,2.095-2.961,3.761-2.695
		c1.779,0.284,1.229,0.977,2.001,2.669c0.878,1.925,1.732,3.862,2.607,5.789C201.706,1075.984,207.764,1082.157,205.076,1083.477z
		 M218.311,1055.98c-3.352-7.785-7.914-14.742-12.081-21.866c2.571-1.336,3.95-2.608,6.216-0.539
		c1.828,1.669,3.539,5.764,4.629,8.08c3.369,7.16,3.7,15.273,4.324,23.033C220.369,1061.785,219.34,1058.883,218.311,1055.98z
		 M228.855,1039.188c-2.71-3.163-5.231-6.397-8.205-9.336c-1.475-1.457-3.893-2.773-5.141-4.293
		c-2.153-2.623-2.317-6.128,1.924-5.896C222.914,1019.965,230.668,1034.783,228.855,1039.188z M240.299,1024.781
		c-5.622-1.83-10.333-3.462-14.191-8.454c-1.996-2.583-3.501-5.472-0.263-6.235c3.74-0.882,6.442,4.282,8.931,6.741
		c3.758,3.714,7.731,6.845,11.921,10.048C244.564,1026.18,242.431,1025.48,240.299,1024.781z M733.677,967.966
		c3.063,0.479,8.97,4.001,3.703,5.701c-3.037,0.98-8.959-0.19-12.174,0.033c-1.479,0.103-3.039,0.226-4.518,0.386
		c-2.574,0.28-10.977,3.958-8.51-1.141c1.44-2.974,9.923-4.71,12.568-5.051C727.632,967.523,730.812,967.652,733.677,967.966z
		 M707.4,960.774c-1.607,0.362-6.842,2.761-8.229,1.994c-2.34-1.295,0.367-2.588,1.435-3.304c5.846-3.919,17.054-6.605,24.048-4.69
		c2.418,0.662,7.849,4.824,2.878,6.418c-1.587,0.509-5.474-0.812-7.071-1.063C715.81,959.397,711.974,959.729,707.4,960.774z
		 M718.303,988.809c-1.246,0-6.424,1.316-7.443,0.309c-2.542-2.514,2.919-3.996,4.349-4.256c-3.981-5.388,14.03-6.55,16.922-6.727
		c2.602-0.159,9.797-0.58,6.531,4.468c-1.887,2.916-10.642,1.46-13.96,1.73c4.157,0.209,12.048,0.752,15.202,3.91
		c1.184,1.185,1.983,4.337,0.289,5.564c-1.47,1.065-6.702-1.876-8.581-2.475C727.571,990.042,722.623,988.809,718.303,988.809z
		 M750.442,1029.786c-0.674,4.992-10.529,2.79-14.029,3.413c-2.637,0.469-5.723,1.104-8.103,2.358
		c-1.155,0.609-4.399,4.611-5.559,4.224c-4.104-1.369,2.294-7.51,3.549-8.339c3.268-2.159,7.29-3.388,11.104-4.057
		C738.765,1027.146,752.205,1025.169,750.442,1029.786z"/>
	<path fill="#2C2C2C" d="M179.22,756.693c10.093-4.379,19.193-12.235,28.787-17.721c11.211-6.411,22.304-13.02,33.491-19.474
		c21.468-12.384,43.51-23.524,65.324-35.282c-17.832,20.809-22.417,58.45-1.837,79.018c-8.311,4.959-15.694,15.468-21.248,23.116
		c-3.776,5.199-7.085,10.705-9.726,16.568c-2.329,5.169-3.29,11.458-5.915,16.351c-1.319,2.458-0.661,1.932-3.818,2.485
		c-1.434,0.251-2.84,0.627-4.25,0.984c-5.642,1.428-11.156,3.435-16.203,6.363c-9.434,5.471-17.561,12.603-24.725,20.776
		c-7.309,8.338-13.527,17.477-19.299,26.925c-5.937,9.717-12.191,19.55-16.005,30.32c-7.719,21.793-8.638,44.943-8.746,67.85
		c-0.086,18.294,3.664,36.154,3.837,54.371c3.889-7.828,9.342-14.217,15.419-20.38c6.612-6.705,12.99-13.402,21.813-17.132
		c17.217-7.28,37.481-5.23,55.727-7.766c36.857-5.122,71.17-11.51,108.608-11.47c24.294,0.026,47.405,1.587,70.025,11.346
		c-6.228-11.957-8.972-21.389-8.684-34.558c0.326-14.889-2.224-30.425-3.781-45.228c-0.084-0.775-0.756-4.183-1.183-5.764
		c-0.239-0.883-2.375-6.637-1.712-5.128c-3.35-8.033-6.738-15.733-12.47-22.204c-4.609-5.203-10.038-10.208-15.508-14.533
		c-8.96-7.085-18.616-13.207-28.249-19.303c-15.981-10.112-31.129-17.458-50.216-18.982c-18.289-1.46-36.694,0.029-54.879,2.142
		c2.698-5.438,3.998-11.59,6.695-17.111c2.736-5.599,6.083-10.923,9.891-15.853c5.553-7.19,11.967-13.649,18.575-19.839
		c4.35,6.965,10.164,12.838,14.499,18.761c5.407,7.388,10.844,15.171,17.402,21.606c21.515,21.112,56.274,18.72,83.987,16.076
		c13.177-1.257,24.597-6.128,37.39-8.892c13.806-2.982,28.589-3.768,41.746-9.049c23.826-9.563,47.484-26.972,63.042-47.303
		c21.577-28.197,31.28-66.57,16.825-99.694c0-3.094-3.99-8.55-5.509-11.297c-2.711-4.904-5.087-10.028-8.217-14.685
		c-5.13-7.634-10.612-14.813-16.44-21.917h0.009c-2.645,0-7.741-11.526-8.559-13.903c-14.455,21.925-44.408,29.704-68.749,34.992
		c-23.489,5.103-48.144,4.3-71.273-1.991c-9.27-2.507-19.768-6.781-28.407-11.737c-0.113-0.062-2.847-1.951-1.484-3.748
		c1.904-2.511,11,3.163,13.077,4.008c9.815,3.995,19.759,8.689,30.31,10.291c21.553,3.271,45.156,0.843,66.119-4.778
		c-2.573-7.526-4.943-14.368-8.774-21.422c-1.422-2.619-3.483-7.391,1.12-6.95c3.893,0.663,5.42,8.61,6.413,11.564
		c1.783,5.304,2.47,10.698,3.742,16.126c4.393-1.205,8.695-2.488,13.048-3.912c-1.032-2.787-2.018-5.559-2.943-8.384
		c-0.499-1.525-0.991-3.053-1.517-4.568c0.046,0.134-2.235-5.877-1.356-3.846c-0.443-1.021-1.105-2.687,0.146-3.523
		c1.861-1.245,2.497,1.791,3.178,3.394c2.215,5.215,3.371,10.715,4.611,16.213c8.508-2.881,17.417-6.171,24.898-11.331
		c5.657-3.903,11.222-9.357,14.382-15.546c2.357-4.617-0.158-12.002-1.141-17.146c-2.428-12.72-3.92-26.28-9.1-38.246
		c-5.821-13.445-19.246-22.026-33.26-24.015c3.083,0.448-4.097-0.402-3.648-0.364c-2.211-0.19-4.427-0.311-6.646-0.36
		c-3.801-0.083-7.622,0.021-11.407,0.395c-8.315,0.823-16.243,3.609-23.579,7.571c-14.974,8.087-29.198,17.621-44.019,25.993
		c-10.653,6.018-21.759,10.535-32.915,15.373c-5.462,2.369-11.592,4.691-15.112,9.981c-4.382,6.586-6.379,15.245-8.126,22.838
		c-1.745,7.59-3.377,15.273-4.826,22.922c-0.626,3.306-0.757,6.536-1.062,9.868c-0.322,3.517-0.47,10.751-2.621,13.62
		c-1.229,1.639-5.555,3.15-7.256,4.155c-3.53,2.087-6.896,4.423-10.369,6.599c-6.915,4.331-14.153,7.914-21.381,11.675
		c-13.064,6.798-24.331,16.094-37.124,23.103c-15.984,8.758-31.743,17.841-47.508,26.985c-14.307,8.298-28.61,17.103-41.272,27.761
		c-4.085,3.439-16.502,11.429-9.799,16.207C172.705,759.34,175.118,758.457,179.22,756.693z M512.026,535.968
		c1.931-7.673,9.758,4.753,10.882,6.861c2.844,5.332,3.752,11.621,5.093,17.459c-2.446-4.216-4.859-8.305-7.709-12.27
		C518.511,545.54,511.411,539.375,512.026,535.968z M504.565,574.703c-0.048-2.805,2.439-3.776,4.968-3.007
		c5.093,1.548,1.942,7.553,1.798,11.425c-0.358,9.645,1.472,19.294,2.937,28.79C508.901,600.362,503.257,587.719,504.565,574.703z
		 M438.702,604.274c1.709,3.325,3.735,6.451,5.386,9.81c0.869,1.769,5.544,7.858,4.019,8.896c2.35-1.51,4.268,4.541,4.061,6.521
		c-8.844-5.81-13.357-13.176-19.301-21.669C434.811,606.646,436.756,605.46,438.702,604.274z"/>
</g>
</svg>
