<?xml version="1.0" encoding="utf-8"?>
<!-- Svg Vector Icons : http://www.onlinewebfonts.com/icon -->
<!DOCTYPE svg PUBLIC "-//W3C//DTD SVG 1.1//EN" "http://www.w3.org/Graphics/SVG/1.1/DTD/svg11.dtd">
<svg version="1.1" xmlns="http://www.w3.org/2000/svg" xmlns:xlink="http://www.w3.org/1999/xlink" x="0px" y="0px" viewBox="0 0 1000 1000" enable-background="new 0 0 1000 1000" xml:space="preserve">
<g><g transform="translate(0.000000,512.000000) scale(0.100000,-0.100000)"><path d="M4526.2,5008.1c-1477.3-151.4-2791.8-942.7-3625.3-2186.3C594.3,2362,306.9,1678,197.7,1139.5C115.3,733.3,100,574.3,100,124c0-450.3,15.3-605.5,97.7-1015.5C305-1422.3,592.4-2108.3,900.9-2573.9c921.6-1377.7,2458.4-2207.3,4094.7-2207.3c1850.9,0,3556.3,1059.6,4386,2722.8c831.6,1668.9,653.4,3631-467.5,5123.7c-776,1034.7-1921.8,1714.9-3228.6,1916.1C5445.9,5017.7,4771.4,5035,4526.2,5008.1z M5409.5,4548.3c599.7-57.5,1207.1-245.3,1722.6-528.8c390.9-216.5,651.5-415.8,998.3-760.7c697.5-695.5,1113.3-1517.6,1266.6-2504.3c46-304.7,46-958.1-1.9-1262.7c-115-751.1-398.5-1429.4-843.1-2029.2c-195.4-260.6-634.2-699.4-894.8-894.8c-599.7-444.5-1278-728.1-2029.2-843.1c-304.7-47.9-958.1-47.9-1262.7-1.9c-986.8,153.3-1808.8,569.1-2504.4,1266.6c-344.9,346.8-544.2,607.4-760.7,998.3c-728.1,1320.2-728.1,2952.7,0,4272.9c216.5,390.9,415.8,653.4,760.7,998.3c344.9,344.9,607.4,544.2,998.3,760.7c636.2,350.7,1358.5,540.4,2100,548C5091.4,4567.4,5294.5,4559.8,5409.5,4548.3z"/><path d="M4861.5,2865.9c-69-23-2130.7-1147.7-2169-1184.1c-53.6-47.9-42.1-113,28.7-164.8c32.6-24.9,526.9-298.9,1096-609.3l1034.7-563.3h143.7h143.7L6174,907.7c569.1,310.4,1063.4,584.4,1097.9,609.3c69,51.7,80.5,116.9,28.7,164.8c-19.2,15.3-513.5,289.3-1097.9,607.4c-1015.5,553.7-1069.2,580.6-1178.4,586.3C4961.1,2879.4,4888.3,2875.5,4861.5,2865.9z"/><path d="M2573.7,1032.2c-26.8-26.8-30.7-157.1-30.7-1153.5c0-1082.6,1.9-1124.7,38.3-1201.4c21.1-44.1,61.3-101.5,90.1-128.4c80.5-72.8,1923.8-1172.7,1983.2-1180.3c36.4-5.7,57.5,3.8,80.5,40.2c28.7,42.2,30.7,168.6,26.8,1234l-5.7,1188l-57.5,92c-57.5,93.9-72.8,101.6-1025.1,617c-574.8,310.4-988.7,523.1-1019.4,523.1C2625.4,1062.9,2589,1049.5,2573.7,1032.2z"/><path d="M6375.2,572.4c-500.1-270.2-940.8-509.7-979.1-534.6C5352,9,5306.1-46.5,5275.4-107.9l-49.8-101.5v-1170.7c0-1048.1,3.8-1174.6,30.7-1214.8c23-30.7,46-42.1,82.4-36.4c57.5,7.6,1900.8,1107.5,1981.2,1180.3c28.8,26.8,69,84.3,90.1,128.4c36.4,76.7,38.3,118.8,38.3,1201.4c0,1061.5-1.9,1122.8-34.5,1151.6c-19.2,19.2-55.6,32.6-82.4,32.6C7306.4,1062.9,6875.3,842.5,6375.2,572.4z"/></g></g>
</svg>